# xmcd
#
# Track frame offsets: 
#        150
#        22029
#        48025
#        64283
#        89219
#        109279
#        127578
#        149133
#        172210
#        207439
#
# Disc length: 2986 seconds
#
# Revision: 0
# Processed by: cddbd v1.4PL0 Copyright (c) Steve Scherf et al.
# Submitted via: ExactAudioCopy v0.90b2
#
DISCID=9c0ba80a
DTITLE=Oernes Blues Band - Ramblin'
DYEAR=1998
DGENRE=Blues
TTITLE0=Ramblin' on my mind
TTITLE1=I just wanna make love to you
TTITLE2=Not fade away
TTITLE3=Life is hard
TTITLE4=Watch out
TTITLE5=Cold shot
TTITLE6=I can't quit you, baby
TTITLE7=The thrill is gone
TTITLE8=Voodoo edge
TTITLE9=Tell me
EXTD=
EXTT0=
EXTT1=
EXTT2=
EXTT3=
EXTT4=
EXTT5=
EXTT6=
EXTT7=
EXTT8=
EXTT9=
PLAYORDER=
